<svg width="40" height="40" viewBox="0 0 40 40" fill="none" xmlns="http://www.w3.org/2000/svg">
<path d="M24.9639 17.1201C28.4192 18.9934 30.7872 22.5508 31.0742 26.584C31.0855 26.7915 31.1006 27.0066 31.1006 27.2217C31.1006 27.2821 31.1074 27.3429 31.1074 27.4033C31.1074 27.5656 31.0964 27.7166 31.0889 27.8789C31.0435 28.9288 30.8771 29.949 30.5674 30.9082C30.4994 31.1422 30.4054 31.3613 30.3262 31.584C30.2393 31.8105 30.141 32.037 30.0391 32.2598C28.1885 36.2818 24.1664 39.084 19.4268 39.084C14.6873 39.0839 10.4383 36.1614 8.64062 31.9053C9.61875 32.1394 10.6389 32.2861 11.6963 32.2861C11.7491 32.2861 11.802 32.279 11.8623 32.2715C13.49 34.779 16.3186 36.4032 19.4229 36.4033C23.8339 36.4033 27.5086 33.2114 28.2715 29.0156C28.3659 28.5059 28.4192 27.9963 28.4268 27.4678V27.4033C28.4267 24.1857 26.7045 21.285 24.0723 19.6875L24.9639 17.1201ZM7.1875 8.6377C6.94583 9.61946 6.8057 10.6389 6.80566 11.6924C6.80566 11.7453 6.81348 11.8065 6.81348 11.8594C4.30961 13.4871 2.68164 16.3156 2.68164 19.4199C2.68175 23.8308 5.88049 27.5125 10.0762 28.2754C10.5785 28.3623 11.096 28.4153 11.6172 28.4229C11.6472 28.4229 11.6661 28.4306 11.6924 28.4307C13.9243 28.4307 16.0012 27.5919 17.5986 26.2021C17.6704 26.4022 17.7461 26.5989 17.8027 26.8027L17.7988 26.8066C18.0028 27.5657 18.6116 28.1058 19.3594 28.2305C17.4824 29.8619 15.091 30.8968 12.5078 31.0781C12.2965 31.0895 12.0813 31.1045 11.8662 31.1045C11.8058 31.112 11.7452 31.1191 11.6924 31.1191C11.5225 31.1191 11.3713 31.1003 11.209 31.0928C10.1593 31.0512 9.13973 30.8782 8.18066 30.5762C7.95407 30.5006 7.7305 30.413 7.50391 30.3262C7.27369 30.2356 7.05471 30.1449 6.83203 30.043C2.81014 28.1925 0.000143025 24.1632 0 19.4238C0 14.6842 2.92375 10.4316 7.1875 8.6377ZM27.3916 7.98047C27.5539 7.98047 27.7127 7.99928 27.875 8.00684C28.9211 8.04838 29.9375 8.21474 30.9043 8.52441C31.1345 8.59237 31.3535 8.68637 31.5762 8.76562C31.8102 8.86 32.0292 8.95081 32.252 9.05273H32.2559C36.2779 10.9033 39.0879 14.937 39.0879 19.6729C39.0878 24.4085 36.1649 28.665 31.9014 30.4551C32.1431 29.477 32.2822 28.457 32.2822 27.4033C32.2822 27.3429 32.2744 27.2899 32.2744 27.2295C34.7782 25.5981 36.4062 22.7696 36.4062 19.6729C36.4062 15.2543 33.2075 11.5793 29.0117 10.8164C28.5096 10.722 27.9924 10.6697 27.4639 10.6621H27.3955C24.2496 10.6621 21.4054 12.3119 19.7891 14.8535L16.2773 16.0732C17.7352 11.5793 21.8291 8.35453 26.5762 8.01465C26.7875 8.00333 27.0026 7.99583 27.2178 7.98828C27.2782 7.98828 27.3312 7.98048 27.3916 7.98047ZM23.1016 14.9297C23.7285 14.7106 24.3285 15.3106 24.1133 15.9375L20.458 26.542C20.205 27.2784 19.1513 27.2485 18.9473 26.4971C18.547 25.0204 17.7657 23.6263 16.6025 22.4707C15.4394 21.3151 14.0411 20.5411 12.5645 20.1445C11.8135 19.9403 11.7756 18.8907 12.5117 18.6338L23.1016 14.9297ZM19.665 0C24.4046 6.52074e-05 28.6534 2.9238 30.4473 7.1875C29.4654 6.9458 28.4453 6.80566 27.3916 6.80566C27.3388 6.80568 27.2784 6.81348 27.2256 6.81348C25.5979 4.30965 22.7693 2.6817 19.665 2.68164C15.2541 2.68164 11.5715 5.88048 10.8086 10.0762C10.7217 10.5785 10.6687 11.0963 10.6611 11.625V11.6924C10.6611 13.7996 11.4016 15.7714 12.6553 17.3311L12.1348 17.5127V17.5088C11.3568 17.7807 10.843 18.4947 10.8203 19.3066C9.2191 17.4373 8.195 15.0692 8.01367 12.5088C8.00234 12.2973 7.9873 12.0815 7.9873 11.8662C7.98728 11.8059 7.98047 11.7527 7.98047 11.6924C7.98049 11.5301 7.99148 11.3715 7.99902 11.2168C8.04812 10.1632 8.2145 9.14741 8.5166 8.18066C8.59208 7.95044 8.67882 7.73146 8.76562 7.50879C8.85249 7.27464 8.94699 7.05485 9.05273 6.83203C10.8958 2.81011 14.9255 0 19.665 0Z" fill="url(#paint0_linear_134_895)"></path>
<defs>
<linearGradient id="paint0_linear_134_895" x1="0" y1="39.084" x2="39.084" y2="-0.00390605" gradientUnits="userSpaceOnUse">
<stop stop-color="#007369"></stop>
<stop offset="1" stop-color="#08F7A1"></stop>
</linearGradient>
</defs>
</svg>