<svg width="185" height="40" viewBox="0 0 185 40" fill="none" xmlns="http://www.w3.org/2000/svg">
<path d="M24.9639 17.1201C28.4192 18.9934 30.7872 22.5508 31.0742 26.584C31.0855 26.7915 31.1006 27.0066 31.1006 27.2217C31.1006 27.2821 31.1074 27.3429 31.1074 27.4033C31.1074 27.5656 31.0964 27.7166 31.0889 27.8789C31.0435 28.9288 30.8771 29.949 30.5674 30.9082C30.4994 31.1422 30.4054 31.3613 30.3262 31.584C30.2393 31.8105 30.141 32.037 30.0391 32.2598C28.1885 36.2818 24.1664 39.084 19.4268 39.084C14.6873 39.0839 10.4383 36.1614 8.64062 31.9053C9.61875 32.1394 10.6389 32.2861 11.6963 32.2861C11.7491 32.2861 11.802 32.279 11.8623 32.2715C13.49 34.779 16.3186 36.4032 19.4229 36.4033C23.8339 36.4033 27.5086 33.2114 28.2715 29.0156C28.3659 28.5059 28.4192 27.9963 28.4268 27.4678V27.4033C28.4267 24.1857 26.7045 21.285 24.0723 19.6875L24.9639 17.1201ZM7.1875 8.6377C6.94583 9.61946 6.8057 10.6389 6.80566 11.6924C6.80566 11.7453 6.81348 11.8065 6.81348 11.8594C4.30961 13.4871 2.68164 16.3156 2.68164 19.4199C2.68175 23.8308 5.88049 27.5125 10.0762 28.2754C10.5785 28.3623 11.096 28.4153 11.6172 28.4229C11.6472 28.4229 11.6661 28.4306 11.6924 28.4307C13.9243 28.4307 16.0012 27.5919 17.5986 26.2021C17.6704 26.4022 17.7461 26.5989 17.8027 26.8027L17.7988 26.8066C18.0028 27.5657 18.6116 28.1058 19.3594 28.2305C17.4824 29.8619 15.091 30.8968 12.5078 31.0781C12.2965 31.0895 12.0813 31.1045 11.8662 31.1045C11.8058 31.112 11.7452 31.1191 11.6924 31.1191C11.5225 31.1191 11.3713 31.1003 11.209 31.0928C10.1593 31.0512 9.13973 30.8782 8.18066 30.5762C7.95407 30.5006 7.7305 30.413 7.50391 30.3262C7.27369 30.2356 7.05471 30.1449 6.83203 30.043C2.81014 28.1925 0.000143025 24.1632 0 19.4238C0 14.6842 2.92375 10.4316 7.1875 8.6377ZM27.3916 7.98047C27.5539 7.98047 27.7127 7.99928 27.875 8.00684C28.9211 8.04838 29.9375 8.21474 30.9043 8.52441C31.1345 8.59237 31.3535 8.68637 31.5762 8.76562C31.8102 8.86 32.0292 8.95081 32.252 9.05273H32.2559C36.2779 10.9033 39.0879 14.937 39.0879 19.6729C39.0878 24.4085 36.1649 28.665 31.9014 30.4551C32.1431 29.477 32.2822 28.457 32.2822 27.4033C32.2822 27.3429 32.2744 27.2899 32.2744 27.2295C34.7782 25.5981 36.4062 22.7696 36.4062 19.6729C36.4062 15.2543 33.2075 11.5793 29.0117 10.8164C28.5096 10.722 27.9924 10.6697 27.4639 10.6621H27.3955C24.2496 10.6621 21.4054 12.3119 19.7891 14.8535L16.2773 16.0732C17.7352 11.5793 21.8291 8.35453 26.5762 8.01465C26.7875 8.00333 27.0026 7.99583 27.2178 7.98828C27.2782 7.98828 27.3312 7.98048 27.3916 7.98047ZM23.1016 14.9297C23.7285 14.7106 24.3285 15.3106 24.1133 15.9375L20.458 26.542C20.205 27.2784 19.1513 27.2485 18.9473 26.4971C18.547 25.0204 17.7657 23.6263 16.6025 22.4707C15.4394 21.3151 14.0411 20.5411 12.5645 20.1445C11.8135 19.9403 11.7756 18.8907 12.5117 18.6338L23.1016 14.9297ZM19.665 0.000976562C24.4046 0.00104178 28.6534 2.9238 30.4473 7.1875C29.4654 6.9458 28.4453 6.80566 27.3916 6.80566C27.3388 6.80568 27.2784 6.81348 27.2256 6.81348C25.5979 4.30965 22.7693 2.6817 19.665 2.68164C15.2541 2.68164 11.5715 5.88048 10.8086 10.0762C10.7217 10.5785 10.6687 11.0963 10.6611 11.625V11.6924C10.6611 13.7996 11.4016 15.7714 12.6553 17.3311L12.1348 17.5127V17.5088C11.3568 17.7807 10.843 18.4947 10.8203 19.3066C9.2191 17.4373 8.195 15.0692 8.01367 12.5088C8.00234 12.2973 7.9873 12.0815 7.9873 11.8662C7.98728 11.8059 7.98047 11.7527 7.98047 11.6924C7.98049 11.5301 7.99148 11.3715 7.99902 11.2168C8.04812 10.1632 8.2145 9.14741 8.5166 8.18066C8.59208 7.95044 8.67882 7.73146 8.76562 7.50879C8.85249 7.27464 8.94699 7.05485 9.05273 6.83203C10.8958 2.81011 14.9255 0.000976562 19.665 0.000976562Z" fill="url(#paint0_linear_134_896)"></path>
<path d="M145.539 14.2002C146.634 14.2002 147.601 14.4399 148.439 14.9229C149.278 15.4059 149.943 16.0787 150.434 16.9443C150.925 17.8101 151.17 18.8309 151.17 20.0098C151.17 21.1885 150.924 22.2125 150.434 23.082C149.943 23.9555 149.278 24.6321 148.439 25.1152C147.601 25.5983 146.634 25.8379 145.539 25.8379H145.535C144.636 25.8378 143.813 25.6253 143.073 25.2002C142.662 24.9639 142.299 24.659 141.981 24.2891V29.8193H139.384V14.3281H141.857V15.8311C142.189 15.4173 142.577 15.0821 143.024 14.8262C143.757 14.4089 144.595 14.2002 145.539 14.2002ZM52.3037 14.0537C53.0514 14.0537 53.8066 14.1386 54.5693 14.3086C55.332 14.4786 55.9625 14.7183 56.4609 15.0312L55.4639 17.0527C54.9353 16.7282 54.4064 16.5036 53.874 16.3838C53.3417 16.264 52.809 16.2021 52.2842 16.2021C51.4951 16.2022 50.9097 16.322 50.5283 16.5654C50.147 16.805 49.9581 17.1106 49.958 17.4814C49.958 17.8216 50.0828 18.077 50.332 18.2471C50.5813 18.4171 50.9065 18.5528 51.3105 18.6533C51.7106 18.7537 52.1598 18.8347 52.6504 18.8965C53.1413 18.9622 53.6328 19.0551 54.1162 19.1826C54.5996 19.3102 55.0492 19.4838 55.457 19.7041C55.8648 19.9244 56.1932 20.2338 56.4424 20.6279C56.6916 21.026 56.8164 21.544 56.8164 22.1816C56.8164 22.8928 56.612 23.5075 56.2041 24.0332C55.7963 24.5587 55.2191 24.9651 54.4678 25.2588C53.7163 25.5525 52.8246 25.6953 51.7861 25.6953V25.6875C50.8572 25.6875 49.9659 25.5637 49.1162 25.3164C48.2627 25.0691 47.5864 24.7677 47.0879 24.4121L48.085 22.3906C48.5834 22.7152 49.1801 22.9857 49.8711 23.1982C50.566 23.4108 51.2572 23.5195 51.9482 23.5195C52.7678 23.5195 53.3574 23.4068 53.7275 23.1787C54.0936 22.9507 54.2783 22.6452 54.2783 22.2627C54.2783 21.9497 54.1535 21.714 53.9043 21.5518C53.6551 21.3895 53.3306 21.2657 52.9268 21.1807C52.5265 21.0956 52.0768 21.0187 51.5859 20.9453C51.0951 20.8758 50.6002 20.779 50.1094 20.6592C49.6185 20.5394 49.1688 20.3617 48.7686 20.126C48.3682 19.8902 48.0393 19.5768 47.79 19.1787C47.5408 18.7806 47.416 18.2586 47.416 17.6055C47.416 16.8829 47.6166 16.2531 48.0205 15.7236C48.4208 15.1902 48.9879 14.7801 49.7168 14.4902C50.4456 14.2004 51.3069 14.0537 52.3037 14.0537ZM62.3906 14.2656H65.3662V16.3916H62.3906V21.7949C62.3906 22.336 62.5268 22.7541 62.7949 23.0518C63.0668 23.3492 63.4407 23.5 63.9277 23.5C64.5093 23.5 64.9966 23.3453 65.3818 23.0322L66.1104 24.9258C65.8045 25.1808 65.431 25.3744 64.9893 25.502C64.5437 25.6295 64.0864 25.6953 63.6182 25.6953V25.6875C62.3983 25.6875 61.4575 25.3662 60.7891 24.7207C60.1247 24.0753 59.7921 23.1209 59.792 21.8613V16.3916H57.9648V14.2656H59.792V11.6689H62.3906V14.2656ZM93.5244 14.2656H96.501V16.3916H93.5244V21.7949C93.5244 22.336 93.6606 22.7541 93.9287 23.0518C94.2006 23.3492 94.5745 23.5 95.0615 23.5C95.6431 23.5 96.1304 23.3452 96.5156 23.0322L97.2441 24.9258C96.9383 25.1808 96.5648 25.3744 96.123 25.502C95.6774 25.6295 95.2202 25.6953 94.752 25.6953V25.6875C93.5322 25.6875 92.5923 25.3662 91.9238 24.7207C91.2592 24.0753 90.9268 23.1212 90.9268 21.8613V16.3916H89.0986V14.2656H90.9268V11.6689H93.5244V14.2656ZM132.095 14.2002C132.982 14.2002 133.768 14.3779 134.455 14.7334C135.142 15.089 135.678 15.6308 136.067 16.3613C136.456 17.0918 136.649 18.0309 136.649 19.1787V25.6875H134.051V19.5186C134.051 18.51 133.836 17.7603 133.405 17.2656C132.975 16.7709 132.359 16.5195 131.555 16.5195C130.984 16.5195 130.482 16.6472 130.048 16.9023C129.61 17.1574 129.27 17.5319 129.028 18.0303C128.787 18.525 128.666 19.1595 128.666 19.9248V25.6914H126.067V19.5225C126.067 18.514 125.852 17.7642 125.422 17.2695C124.991 16.7749 124.376 16.5235 123.571 16.5234C123.005 16.5234 122.503 16.6512 122.064 16.9062C121.627 17.1613 121.29 17.5358 121.045 18.0342C120.803 18.5289 120.682 19.1634 120.682 19.9287V25.6953H118.084V14.3281H120.558V15.7725C120.881 15.3628 121.278 15.0299 121.751 14.7764C122.465 14.3938 123.28 14.2002 124.194 14.2002C125.233 14.2002 126.139 14.4637 126.905 14.9893C127.326 15.278 127.671 15.6473 127.938 16.0977C128.27 15.6563 128.692 15.279 129.202 14.9658C130.033 14.4557 130.996 14.2002 132.091 14.2002H132.095ZM181.031 14.2656H184.008V16.3916H181.031V21.7949C181.031 22.336 181.167 22.7541 181.436 23.0518C181.707 23.3492 182.081 23.4999 182.568 23.5C183.15 23.5 183.637 23.3452 184.022 23.0322L184.752 24.9258C184.446 25.1809 184.072 25.3744 183.63 25.502C183.184 25.6295 182.727 25.6953 182.259 25.6953V25.6875C181.039 25.6875 180.099 25.3661 179.431 24.7207C178.766 24.0753 178.434 23.1211 178.434 21.8613V16.3916H176.605V14.2656H178.434V11.6689H181.031V14.2656ZM72.6631 14.0498C74.2718 14.0498 75.5146 14.4439 76.3945 15.2285C77.2743 16.017 77.7119 17.2307 77.7119 18.877V25.5371H75.2646V24.1533C75.0084 24.5492 74.6604 24.8749 74.2148 25.1309C73.5691 25.498 72.7571 25.6836 71.7715 25.6836V25.6875C70.9408 25.6875 70.2119 25.5408 69.5889 25.251C68.9658 24.9611 68.4825 24.5549 68.1426 24.0371C67.8027 23.5192 67.6328 22.9354 67.6328 22.2822C67.6328 21.6291 67.7798 21.0688 68.0781 20.5586C68.3764 20.0485 68.8634 19.6423 69.543 19.3447C70.2227 19.0471 71.1218 18.8965 72.2471 18.8965H75.1172V18.7305C75.1172 17.95 74.8874 17.343 74.4307 16.9102C73.9738 16.4773 73.2786 16.2608 72.3535 16.2607C71.7304 16.2607 71.1141 16.3605 70.5137 16.5576C69.9095 16.7547 69.3997 17.0332 68.9844 17.3887L67.9648 15.4521C68.5615 14.9846 69.2716 14.6332 70.0947 14.4014C70.918 14.1656 71.7756 14.0498 72.6631 14.0498ZM86.8818 16.7324C86.7724 16.7054 86.6665 16.6855 86.5684 16.6777C86.4702 16.67 86.3755 16.666 86.2773 16.666C85.2917 16.666 84.5103 16.9604 83.9287 17.5479C83.3471 18.1353 83.0557 19.0124 83.0557 20.1758V25.6875H80.458V14.3281H82.9316V15.9902C83.2523 15.4889 83.6797 15.0898 84.2119 14.7959C84.9257 14.3978 85.8169 14.2002 86.8818 14.2002V16.7324ZM104.242 10.583C105.296 10.583 106.214 10.7566 106.996 11.1045C107.778 11.4523 108.382 11.9435 108.805 12.585C109.228 13.2265 109.439 13.9802 109.439 14.8613C109.439 15.3444 109.378 15.8235 109.254 16.2988C109.129 16.7742 108.892 17.2732 108.548 17.7988C108.204 18.3245 107.694 18.9122 107.029 19.5654L103.135 23.3486H109.998V25.6875H99.2803V23.8359L105.059 18.2197C105.542 17.7522 105.905 17.3389 106.139 16.9873C106.373 16.6319 106.531 16.3033 106.606 15.998C106.682 15.6927 106.72 15.4063 106.72 15.1357C106.72 14.4555 106.489 13.9257 106.032 13.5508C105.575 13.176 104.903 12.9863 104.016 12.9863C103.31 12.9864 102.668 13.1141 102.094 13.3691C101.52 13.6242 101.021 14.0145 100.605 14.54L98.7139 13.0527C99.2804 12.272 100.047 11.6643 101.01 11.2314C101.973 10.7986 103.049 10.583 104.242 10.583ZM115.319 25.6875H112.721V14.3281H115.319V25.6875ZM157.904 14.0498C159.513 14.0499 160.755 14.444 161.635 15.2285C162.515 16.017 162.953 17.2305 162.953 18.877V25.5371H160.506V24.1533C160.25 24.5493 159.902 24.8749 159.456 25.1309C158.81 25.498 157.998 25.6836 157.013 25.6836V25.6875C156.182 25.6875 155.453 25.5407 154.83 25.251C154.207 24.9611 153.723 24.555 153.383 24.0371C153.043 23.5192 152.873 22.9354 152.873 22.2822C152.873 21.629 153.021 21.0688 153.319 20.5586C153.618 20.0484 154.104 19.6423 154.784 19.3447C155.464 19.0471 156.363 18.8965 157.488 18.8965H160.358V18.7305C160.358 17.9497 160.128 17.343 159.671 16.9102C159.214 16.4773 158.519 16.2607 157.594 16.2607C156.971 16.2608 156.355 16.3606 155.755 16.5576C155.151 16.7547 154.641 17.0332 154.226 17.3887L153.206 15.4521C153.803 14.9846 154.513 14.6332 155.336 14.4014C156.159 14.1695 157.017 14.0498 157.904 14.0498ZM170.673 14.0498C171.753 14.0499 172.704 14.2734 173.531 14.7178C174.355 15.1661 174.982 15.8198 175.412 16.6855L173.418 17.876C173.086 17.3388 172.682 16.9406 172.202 16.6855C171.723 16.4304 171.208 16.3027 170.653 16.3027C170.015 16.3028 169.441 16.4464 168.928 16.7285C168.414 17.0107 168.013 17.4198 167.723 17.9492C167.432 18.4825 167.285 19.1165 167.285 19.8545C167.285 20.5927 167.432 21.2274 167.723 21.7607C168.013 22.294 168.418 22.6994 168.928 22.9854C169.441 23.2675 170.015 23.4111 170.653 23.4111C171.208 23.4111 171.723 23.2834 172.202 23.0283C172.682 22.7732 173.086 22.375 173.418 21.8379L175.412 23.0283C174.982 23.8786 174.354 24.5352 173.531 24.9951C172.708 25.455 171.757 25.6874 170.673 25.6875C169.51 25.6875 168.471 25.436 167.564 24.9336C166.658 24.4312 165.944 23.7395 165.435 22.8584C164.921 21.9772 164.664 20.9793 164.664 19.8584C164.664 18.7377 164.921 17.7211 165.435 16.8477C165.948 15.9743 166.658 15.2906 167.564 14.7959C168.471 14.3012 169.51 14.0498 170.673 14.0498ZM72.4326 20.6631C71.5452 20.6631 70.9487 20.8098 70.6465 21.0996C70.3406 21.3895 70.1895 21.7487 70.1895 22.1738C70.1895 22.657 70.3781 23.0401 70.752 23.3223C71.1258 23.6043 71.647 23.7471 72.3115 23.7471C72.9762 23.7471 73.5203 23.5964 74.0264 23.2988C74.5324 23.0012 74.8944 22.5602 75.1172 21.9805V20.6631H72.4326ZM157.674 20.6631C156.786 20.6631 156.189 20.8097 155.887 21.0996C155.581 21.3894 155.43 21.7489 155.43 22.1738C155.43 22.657 155.619 23.0401 155.993 23.3223C156.367 23.6042 156.888 23.7471 157.553 23.7471C158.217 23.747 158.762 23.5964 159.268 23.2988C159.773 23.0012 160.136 22.5601 160.358 21.9805V20.6631H157.674ZM145.245 16.458C144.622 16.458 144.059 16.6007 143.561 16.8828C143.062 17.165 142.666 17.575 142.375 18.1045C142.084 18.6379 141.937 19.2716 141.937 20.0098C141.937 20.7479 142.084 21.3661 142.375 21.9033C142.666 22.4444 143.062 22.8546 143.561 23.1367C144.059 23.4188 144.622 23.5615 145.245 23.5615C145.868 23.5615 146.427 23.4188 146.918 23.1367C147.409 22.8546 147.802 22.4406 148.093 21.9033C148.383 21.3662 148.53 20.7323 148.53 20.0098C148.53 19.2872 148.383 18.6378 148.093 18.1045C147.802 17.5712 147.409 17.165 146.918 16.8828C146.427 16.6007 145.868 16.4581 145.245 16.458ZM114.031 9.26465C114.518 9.26465 114.915 9.41144 115.225 9.70117C115.538 9.99099 115.693 10.3583 115.693 10.7949C115.693 11.2624 115.542 11.6567 115.236 11.9736C114.93 12.2906 114.53 12.4531 114.031 12.4531V12.457C113.544 12.457 113.147 12.3023 112.834 11.9893C112.521 11.6763 112.366 11.3016 112.366 10.8613C112.366 10.4208 112.521 10.026 112.834 9.7207C113.147 9.4154 113.544 9.26469 114.031 9.26465Z" fill="#FFFFFF"></path>
<defs>
<linearGradient id="paint0_linear_134_896" x1="0" y1="39.084" x2="39.083" y2="-0.00390594" gradientUnits="userSpaceOnUse">
<stop stop-color="#007369"></stop>
<stop offset="1" stop-color="#08F7A1"></stop>
</linearGradient>
</defs>
</svg>